<?xml version="1.0" standalone="no"?>
<!DOCTYPE svg PUBLIC "-//W3C//DTD SVG 20010904//EN"
 "http://www.w3.org/TR/2001/REC-SVG-20010904/DTD/svg10.dtd">
<svg version="1.0" xmlns="http://www.w3.org/2000/svg"
 width="512.000000pt" height="512.000000pt" viewBox="0 0 512.000000 512.000000"
 preserveAspectRatio="xMidYMid meet">

<g transform="translate(0.000000,512.000000) scale(0.100000,-0.100000)"
fill="#000000" stroke="none">
<path d="M0 2560 l0 -2560 2560 0 2560 0 0 2560 0 2560 -2560 0 -2560 0 0
-2560z m1180 1058 c1 -1250 6 -1512 32 -1565 23 -47 63 -68 127 -68 70 1 106
21 128 73 27 64 32 323 33 1600 l0 1232 560 0 560 0 0 -1304 c0 -814 -4 -1343
-10 -1407 -19 -190 -66 -297 -193 -435 -116 -125 -258 -211 -450 -273 -129
-41 -229 -58 -424 -73 -272 -20 -559 8 -793 79 -223 66 -404 174 -519 308 -56
66 -122 192 -140 268 -26 109 -31 347 -31 1565 l0 1272 560 0 560 0 0 -1272z
m2775 497 l280 -756 3 756 2 755 420 0 420 0 0 -1715 0 -1715 -447 0 -448 0
-260 764 -260 764 -3 -764 -2 -764 -420 0 -420 0 0 1715 0 1715 428 0 428 0
279 -755z m-3715 -3216 c0 -441 3 -479 35 -479 32 0 35 38 35 479 l0 441 110
0 111 0 -3 -457 c-3 -440 -4 -460 -24 -503 -26 -56 -90 -115 -141 -129 -127
-36 -261 18 -314 126 l-24 48 -3 458 -3 457 110 0 111 0 0 -441z m1400 -99 l0
-540 -105 0 -105 0 0 31 0 31 -40 -36 c-69 -62 -135 -61 -193 3 -47 52 -49 76
-45 456 3 302 4 311 26 346 25 41 74 69 122 69 37 0 65 -13 103 -48 l27 -26 0
127 0 127 105 0 105 0 0 -540z m1409 503 c6 -21 33 -128 60 -238 l50 -200 0
238 1 237 90 0 90 0 0 -540 0 -540 -105 0 c-58 0 -105 1 -105 3 0 1 -25 108
-54 237 l-54 235 -1 -237 -1 -238 -90 0 -90 0 0 540 0 540 100 0 99 0 10 -37z
m-2032 -163 c68 -41 68 -41 71 -482 l3 -398 -105 0 -106 0 0 358 c0 210 -4
363 -10 372 -7 12 -13 12 -27 4 -17 -10 -18 -39 -21 -373 l-2 -361 -105 0
-105 0 0 440 0 440 105 0 105 0 0 -37 0 -38 19 29 c43 64 117 84 178 46z
m1004 9 c119 -36 169 -144 169 -366 l0 -103 -135 0 -135 0 0 -124 c0 -138 4
-156 31 -156 29 0 39 32 39 129 l0 91 101 0 102 0 -5 -102 c-4 -85 -9 -112
-31 -154 -48 -94 -119 -131 -230 -121 -86 8 -143 46 -182 122 l-30 59 0 265
c0 309 6 342 70 406 60 60 147 80 236 54z m579 -144 c0 -150 -1 -155 -20 -155
-37 0 -77 -28 -89 -61 -7 -20 -11 -124 -11 -280 l0 -249 -105 0 -105 0 0 440
0 440 105 0 105 0 0 -52 0 -53 28 49 c24 42 61 75 85 76 4 0 7 -70 7 -155z
m1121 144 c119 -36 169 -144 169 -366 l0 -103 -135 0 -135 0 0 -124 c0 -138 4
-156 31 -156 29 0 39 32 39 129 l0 91 101 0 102 0 -5 -102 c-4 -85 -9 -112
-31 -154 -48 -94 -119 -131 -230 -121 -86 8 -143 46 -182 122 l-30 59 0 265
c0 309 6 342 70 406 60 60 147 80 236 54z m1234 0 c97 -27 144 -97 145 -216
l0 -73 -90 0 -90 0 0 54 c0 66 -7 86 -29 86 -28 0 -41 -21 -41 -67 0 -64 20
-94 103 -151 83 -58 133 -109 144 -150 5 -15 8 -76 7 -137 0 -93 -4 -116 -22
-152 -46 -88 -156 -124 -274 -89 -102 29 -148 109 -148 256 l0 60 90 0 90 0 0
-66 c0 -36 5 -74 10 -85 12 -21 40 -25 58 -7 12 12 17 104 6 132 -3 8 -48 48
-100 87 -64 48 -103 87 -122 118 -25 43 -27 54 -27 161 0 123 8 152 58 198 50
47 147 64 232 41z m-852 -31 c3 -13 16 -129 28 -258 l23 -235 23 230 c12 127
22 242 22 258 l1 27 89 0 88 0 6 -57 c3 -32 14 -148 24 -258 l18 -200 7 115
c4 63 15 174 23 247 8 73 15 137 15 143 0 6 34 10 91 10 l90 0 -6 -52 c-8 -79
-75 -795 -75 -813 0 -13 -18 -15 -114 -15 l-113 0 -11 98 c-6 53 -17 151 -24
217 l-12 120 -23 -195 c-12 -107 -22 -205 -22 -217 -1 -22 -4 -23 -116 -23
-89 0 -115 3 -115 13 0 17 -77 753 -86 820 l-6 47 85 0 c80 0 85 -1 90 -22z"/>
<path d="M1371 986 c-8 -9 -11 -95 -9 -291 3 -256 4 -279 21 -289 15 -9 21 -7
33 8 19 26 21 555 2 574 -16 16 -33 15 -47 -2z"/>
<path d="M1926 984 c-3 -9 -6 -49 -6 -90 l0 -74 30 0 30 0 0 74 c0 87 -6 106
-30 106 -10 0 -21 -7 -24 -16z"/>
<path d="M3626 984 c-3 -9 -6 -49 -6 -90 l0 -74 30 0 30 0 0 74 c0 87 -6 106
-30 106 -10 0 -21 -7 -24 -16z"/>
</g>
</svg>
